<?xml version="1.0" encoding="utf-8"?>
<!-- Generator: Adobe Illustrator 24.0.0, SVG Export Plug-In . SVG Version: 6.00 Build 0)  -->
<svg version="1.1" id="Layer_1" xmlns="http://www.w3.org/2000/svg" xmlns:xlink="http://www.w3.org/1999/xlink" x="0px" y="0px"
	 viewBox="0 0 24 24" style="enable-background:new 0 0 24 24;" xml:space="preserve">
<style type="text/css">
	.st0{fill:#FFFFFF;}
</style>
<g>
	<path class="st0" d="M17.5,10.2c-1.7,0-2.6,0.6-3.1,1.4v-1.4h-3.5V20h3.5c0,0,0-5.1,0-5.4c0-1.6,1.1-1.8,1.5-1.8
		c0.3,0,1.3,0.3,1.3,1.8V20h3.4v-5.4C20.6,11.6,19.3,10.2,17.5,10.2z"/>
	<path class="st0" d="M6.3,5C5.1,5,4.4,5.8,4.4,6.7c0,1,0.7,1.7,1.8,1.7c1.2,0,1.9-0.7,1.9-1.7C8.1,5.8,7.4,5,6.3,5z"/>
	<rect x="4.4" y="10.2" class="st0" width="3.5" height="9.8"/>
</g>
</svg>
